<svg width="540" height="380" viewBox="0 0 540 380" fill="none" xmlns="http://www.w3.org/2000/svg">
<path d="M403.193 249.292C402.755 247.89 402.853 246.361 403.468 245.035C404.082 243.71 405.163 242.696 406.475 242.213C406.744 242.118 407.02 242.047 407.3 242.001L410.128 229.657L417.499 229.681L413.279 247.053C413.382 248.297 413.091 249.542 412.452 250.59C411.813 251.637 410.864 252.427 409.754 252.834C409.105 253.064 408.419 253.155 407.737 253.102C407.055 253.048 406.389 252.851 405.779 252.521C405.168 252.192 404.626 251.737 404.182 251.183C403.738 250.628 403.402 249.986 403.193 249.292Z" fill="#9F616A"/>
<path d="M415.638 241.304L404.349 240.46L409.816 205.301L406.337 166.587L417.749 161.538L425.36 204.53L425.339 204.608L415.638 241.304Z" fill="#2F2E41"/>
<path d="M328.345 237.183C328.32 235.709 328.846 234.285 329.807 233.223C330.769 232.162 332.087 231.55 333.473 231.522C333.756 231.521 334.039 231.544 334.318 231.593L340.502 220.768L347.515 223.218L338.583 238.372C338.313 239.704 337.588 240.881 336.55 241.677C335.512 242.473 334.233 242.832 332.961 242.685C331.689 242.537 330.513 241.893 329.66 240.877C328.808 239.861 328.339 238.545 328.345 237.183Z" fill="#9F616A"/>
<path d="M363.16 372.53H357.154L354.298 347.536L363.162 347.537L363.16 372.53Z" fill="#9F616A"/>
<path d="M364.692 378.812L345.327 378.811V378.547C345.32 376.395 346.114 374.327 347.535 372.796C348.229 372.041 349.058 371.441 349.974 371.032C350.889 370.623 351.872 370.413 352.865 370.415H352.865L364.692 370.415L364.692 378.812Z" fill="#2F2E41"/>
<path d="M405.057 372.53H399.052L396.195 347.536L405.058 347.537L405.057 372.53Z" fill="#9F616A"/>
<path d="M406.589 378.812L387.224 378.811V378.547C387.216 376.395 388.01 374.327 389.432 372.796C390.126 372.041 390.955 371.441 391.87 371.032C392.786 370.623 393.769 370.413 394.761 370.415H394.762L406.589 370.415L406.589 378.812Z" fill="#2F2E41"/>
<path d="M399.346 137.817C407.226 137.817 413.613 130.924 413.613 122.422C413.613 113.92 407.226 107.027 399.346 107.027C391.466 107.027 385.078 113.92 385.078 122.422C385.078 130.924 391.466 137.817 399.346 137.817Z" fill="#9F616A"/>
<path d="M394.527 121.578C392.382 122.458 390.011 122.486 387.847 121.658C385.684 120.831 383.873 119.202 382.746 117.069C381.723 114.858 381.465 112.334 382.017 109.94C382.57 107.547 383.897 105.437 385.766 103.981C389.563 101.239 395.235 102.146 398.916 105.327C401.399 104.11 404.184 103.776 406.858 104.375C409.533 104.974 411.956 106.474 413.767 108.652C417.321 113.088 417.709 120.129 415.119 125.3C413.986 128 413.484 130.951 413.655 133.901C413.827 136.852 414.666 139.715 416.103 142.245C414.989 142.196 412.536 141.973 409.467 141.687C408.579 141.605 408.195 138.79 407.221 138.699C406.362 138.62 404.921 141.265 404.022 141.182C397.357 140.575 389.895 139.958 386.513 140.078C388.886 133.77 391.561 127.595 394.527 121.578Z" fill="#2F2E41"/>
<path d="M410.288 230.877C410.288 230.877 414.925 236.035 412.093 262.672L410.137 319.232L406.676 369.313L395.541 368.515L385.761 253.245L372.068 295.426L364.695 365.159L354.011 364.36L352.187 295.014L356.87 241.422L410.288 230.877Z" fill="#2F2E41"/>
<path d="M364.394 244.648C358.698 244.649 356.403 243.91 356.235 243.853L355.971 243.763L356.017 243.468C356.055 243.226 359.883 219.147 365.135 206.505L368.827 155.239C368.925 153.725 369.501 152.291 370.462 151.169C371.423 150.048 372.712 149.306 374.12 149.063L374.169 149.402L374.12 149.063L383.514 147.472L389.26 142.012L403.025 142.833L404.239 149.116C405.885 149.613 416.75 153.206 417.825 161.809L417.839 161.917L417.792 162.013L397.888 203.328C399.57 205.119 412.863 219.853 413.765 238.688L413.787 239.141L413.377 239.04C413.339 239.032 409.085 238.159 386.717 242.24C376.371 244.126 369.182 244.648 364.394 244.648Z" fill="#2F2E41"/>
<path d="M342.329 236.934L334.216 230.193L352.324 191.102L369.165 152.789C369.396 152.255 369.777 151.81 370.255 151.515C370.732 151.22 371.284 151.089 371.835 151.141C372.385 151.192 372.907 151.424 373.329 151.804C373.75 152.183 374.052 152.693 374.191 153.262L378.36 169.579L365.324 206.175L342.329 236.934Z" fill="#2F2E41"/>
<path d="M516.482 378.533L516.964 377.585C510.5 373.865 502.457 369.236 498.255 361.639C494.114 354.151 494.021 343.981 498.013 335.1C501.41 327.542 507.651 320.77 516.06 315.517C517.719 314.481 519.46 313.499 521.144 312.549C525.214 310.254 529.423 307.88 532.893 304.512C537.673 299.874 541.289 292.09 538.594 285.156C537.707 282.943 536.256 281.039 534.403 279.66C532.551 278.281 530.372 277.482 528.115 277.354L528.058 278.431C530.126 278.548 532.122 279.279 533.819 280.542C535.516 281.805 536.847 283.549 537.66 285.576C540.165 292.019 536.728 299.33 532.21 303.715C528.835 306.991 524.683 309.332 520.669 311.596C518.976 312.551 517.224 313.539 515.547 314.587C506.963 319.949 500.583 326.882 497.098 334.635C492.963 343.835 493.071 354.393 497.382 362.187C501.726 370.042 509.908 374.75 516.482 378.533Z" fill="#F1F1F1"/>
<path d="M521.691 283.039C526.589 283.039 530.56 280.987 530.56 278.455C530.56 275.923 526.589 273.871 521.691 273.871C516.793 273.871 512.822 275.923 512.822 278.455C512.822 280.987 516.793 283.039 521.691 283.039Z" fill="#F1F1F1"/>
<path d="M514.596 313.239C519.494 313.239 523.465 311.187 523.465 308.655C523.465 306.124 519.494 304.071 514.596 304.071C509.698 304.071 505.727 306.124 505.727 308.655C505.727 311.187 509.698 313.239 514.596 313.239Z" fill="#F1F1F1"/>
<path d="M530.813 318.093C535.711 318.093 539.682 316.041 539.682 313.509C539.682 310.977 535.711 308.925 530.813 308.925C525.915 308.925 521.944 310.977 521.944 313.509C521.944 316.041 525.915 318.093 530.813 318.093Z" fill="#F1F1F1"/>
<path d="M505.474 343.44C510.372 343.44 514.343 341.387 514.343 338.856C514.343 336.324 510.372 334.272 505.474 334.272C500.576 334.272 496.605 336.324 496.605 338.856C496.605 341.387 500.576 343.44 505.474 343.44Z" fill="#F1F1F1"/>
<path d="M487.736 343.44C492.634 343.44 496.605 341.387 496.605 338.856C496.605 336.324 492.634 334.272 487.736 334.272C482.838 334.272 478.868 336.324 478.868 338.856C478.868 341.387 482.838 343.44 487.736 343.44Z" fill="#F1F1F1"/>
<path d="M538.851 380H249.671C249.466 380 249.269 379.913 249.124 379.759C248.978 379.604 248.897 379.395 248.897 379.176C248.897 378.958 248.978 378.748 249.124 378.594C249.269 378.439 249.466 378.352 249.671 378.352H539.226C539.431 378.352 539.628 378.439 539.773 378.594C539.918 378.748 540 378.958 540 379.176C540 379.631 539.279 380 538.851 380Z" fill="#CBCBCB"/>
<path d="M176.937 92.0857H48.4182C47.3919 92.0844 46.408 91.65 45.6823 90.8777C44.9566 90.1055 44.5483 89.0584 44.5471 87.9663V41.8292C44.5483 40.7371 44.9566 39.6901 45.6823 38.9178C46.408 38.1455 47.3919 37.7111 48.4182 37.7098H176.937C177.964 37.7111 178.947 38.1455 179.673 38.9178C180.399 39.69 180.807 40.7371 180.808 41.8292V87.9663C180.807 89.0584 180.399 90.1055 179.673 90.8778C178.947 91.65 177.964 92.0844 176.937 92.0857Z" fill="#3F3D56"/>
<path d="M98.7418 50.068H64.6765V54.1874H98.7418V50.068Z" fill="white"/>
<path d="M143.646 55.0112C144.929 55.0112 145.969 53.9047 145.969 52.5396C145.969 51.1746 144.929 50.068 143.646 50.068C142.363 50.068 141.323 51.1746 141.323 52.5396C141.323 53.9047 142.363 55.0112 143.646 55.0112Z" fill="#FCDDEC"/>
<path d="M151.388 55.0112C152.671 55.0112 153.711 53.9047 153.711 52.5396C153.711 51.1746 152.671 50.068 151.388 50.068C150.106 50.068 149.066 51.1746 149.066 52.5396C149.066 53.9047 150.106 55.0112 151.388 55.0112Z" fill="#FCDDEC"/>
<path d="M159.13 55.0112C160.413 55.0112 161.453 53.9047 161.453 52.5396C161.453 51.1746 160.413 50.068 159.13 50.068C157.847 50.068 156.808 51.1746 156.808 52.5396C156.808 53.9047 157.847 55.0112 159.13 55.0112Z" fill="#FCDDEC"/>
<path d="M176.937 150.581H48.4182C47.3919 150.58 46.408 150.145 45.6823 149.373C44.9566 148.601 44.5483 147.554 44.5471 146.462V100.324C44.5483 99.2323 44.9566 98.1853 45.6823 97.413C46.408 96.6408 47.3919 96.2063 48.4182 96.2051H176.937C177.964 96.2063 178.947 96.6407 179.673 97.413C180.399 98.1853 180.807 99.2323 180.808 100.324V146.462C180.807 147.554 180.399 148.601 179.673 149.373C178.947 150.145 177.964 150.58 176.937 150.581Z" fill="#3F3D56"/>
<path d="M98.7418 108.563H64.6765V112.683H98.7418V108.563Z" fill="white"/>
<path d="M143.646 113.506C144.929 113.506 145.969 112.4 145.969 111.035C145.969 109.67 144.929 108.563 143.646 108.563C142.363 108.563 141.323 109.67 141.323 111.035C141.323 112.4 142.363 113.506 143.646 113.506Z" fill="#FCDDEC"/>
<path d="M151.388 113.506C152.671 113.506 153.711 112.4 153.711 111.035C153.711 109.67 152.671 108.563 151.388 108.563C150.106 108.563 149.066 109.67 149.066 111.035C149.066 112.4 150.106 113.506 151.388 113.506Z" fill="#FCDDEC"/>
<path d="M159.13 113.506C160.413 113.506 161.453 112.4 161.453 111.035C161.453 109.67 160.413 108.563 159.13 108.563C157.847 108.563 156.808 109.67 156.808 111.035C156.808 112.4 157.847 113.506 159.13 113.506Z" fill="#FCDDEC"/>
<path d="M176.937 209.076H48.4182C47.3919 209.075 46.408 208.64 45.6823 207.868C44.9566 207.096 44.5483 206.049 44.5471 204.957V158.82C44.5483 157.727 44.9566 156.68 45.6823 155.908C46.408 155.136 47.3919 154.702 48.4182 154.7H176.937C177.964 154.702 178.947 155.136 179.673 155.908C180.399 156.68 180.807 157.727 180.808 158.82V204.957C180.807 206.049 180.399 207.096 179.673 207.868C178.947 208.64 177.964 209.075 176.937 209.076Z" fill="#3F3D56"/>
<path d="M98.7418 167.058H64.6765V171.178H98.7418V167.058Z" fill="white"/>
<path d="M143.646 172.002C144.929 172.002 145.969 170.895 145.969 169.53C145.969 168.165 144.929 167.058 143.646 167.058C142.363 167.058 141.323 168.165 141.323 169.53C141.323 170.895 142.363 172.002 143.646 172.002Z" fill="#FCDDEC"/>
<path d="M151.388 172.002C152.671 172.002 153.711 170.895 153.711 169.53C153.711 168.165 152.671 167.058 151.388 167.058C150.106 167.058 149.066 168.165 149.066 169.53C149.066 170.895 150.106 172.002 151.388 172.002Z" fill="#FCDDEC"/>
<path d="M159.13 172.002C160.413 172.002 161.453 170.895 161.453 169.53C161.453 168.165 160.413 167.058 159.13 167.058C157.847 167.058 156.808 168.165 156.808 169.53C156.808 170.895 157.847 172.002 159.13 172.002Z" fill="#FCDDEC"/>
<path d="M130.067 244.884H0V190.315H1.54842V243.236H130.067V244.884Z" fill="#CCCCCC"/>
<path d="M81.2922 0H211.36V54.5686H209.811V1.64775H81.2922V0Z" fill="#CCCCCC"/>
</svg>
